<svg width="21" height="19" viewBox="0 0 21 19" fill="none" xmlns="http://www.w3.org/2000/svg">
<path fill-rule="evenodd" clip-rule="evenodd" d="M4.78801 11.02C4.83126 11.0333 4.87536 11.0437 4.92001 11.051C5.20293 11.7177 5.48427 12.385 5.76401 13.053C6.26701 14.255 6.77401 15.493 6.88501 15.849C7.02401 16.287 7.17001 16.585 7.33001 16.789C7.41301 16.893 7.50801 16.985 7.62001 17.055C7.67882 17.0907 7.74115 17.1201 7.80601 17.143C8.12601 17.263 8.41801 17.213 8.60101 17.152C8.70846 17.1155 8.81066 17.0651 8.90501 17.002L8.91001 17L11.736 15.238L15.001 17.74C15.049 17.7767 15.101 17.8077 15.157 17.833C15.549 18.003 15.929 18.063 16.287 18.015C16.643 17.965 16.926 17.816 17.137 17.647C17.3791 17.4515 17.5722 17.2022 17.701 16.919L17.71 16.897L17.713 16.889L17.715 16.885V16.883L17.716 16.882C17.7324 16.8386 17.7458 16.7942 17.756 16.749L20.736 1.724C20.7442 1.67574 20.7489 1.62694 20.75 1.578C20.75 1.138 20.584 0.719 20.195 0.466C19.861 0.249 19.49 0.239 19.255 0.257C19.003 0.277 18.769 0.339 18.612 0.389C18.5243 0.417328 18.4376 0.44868 18.352 0.483L18.341 0.488L1.62701 7.044L1.62501 7.045C1.56833 7.06547 1.51261 7.0885 1.45801 7.114C1.32542 7.17349 1.19827 7.24442 1.07801 7.326C0.851009 7.481 0.328009 7.907 0.417009 8.611C0.487009 9.171 0.871009 9.516 1.10601 9.682C1.23401 9.773 1.35601 9.838 1.44601 9.881C1.48601 9.901 1.57201 9.935 1.60901 9.951L1.61901 9.954L4.78801 11.02ZM18.926 1.868H18.924L18.898 1.879L2.16401 8.444L2.13801 8.454L2.12801 8.457C2.09737 8.46885 2.06733 8.4822 2.03801 8.497C2.06597 8.5127 2.09467 8.52705 2.12401 8.54L5.26601 9.598C5.32149 9.61855 5.37503 9.64398 5.42601 9.674L15.803 3.599L15.813 3.594C15.8535 3.56988 15.8949 3.5472 15.937 3.526C16.009 3.489 16.124 3.435 16.254 3.395C16.344 3.367 16.611 3.288 16.899 3.381C17.052 3.42873 17.1884 3.51874 17.2924 3.64065C17.3965 3.76256 17.4639 3.9114 17.487 4.07C17.5243 4.20875 17.5253 4.35474 17.49 4.494C17.42 4.769 17.228 4.983 17.053 5.147C16.903 5.287 14.957 7.163 13.038 9.015L10.425 11.535L9.96001 11.985L15.832 16.487C15.9113 16.5201 15.9974 16.5338 16.083 16.527C16.1261 16.5211 16.1667 16.5031 16.2 16.475C16.2405 16.4407 16.2753 16.4002 16.303 16.355L16.305 16.354L19.195 1.781C19.1041 1.80338 19.0149 1.83212 18.928 1.867L18.926 1.868ZM10.465 14.262L9.29301 13.364L9.00901 15.169L10.465 14.262ZM8.21801 11.582L9.38301 10.457L11.996 7.935L12.969 6.997L6.44901 10.814L6.48401 10.896C6.89522 11.8674 7.30189 12.8408 7.70401 13.816L7.98701 12.016C8.01285 11.8491 8.09424 11.6969 8.21801 11.582Z" fill="white"/>
</svg>
