<svg width="26" height="24" viewBox="0 0 26 24" fill="none" xmlns="http://www.w3.org/2000/svg">
<path fill-rule="evenodd" clip-rule="evenodd" d="M21.8739 21.5605V21.5579L21.8971 21.5024L25.7708 1.9724V1.9104C25.7708 1.42344 25.59 0.998483 25.1999 0.744025C24.8576 0.520567 24.4637 0.505067 24.1873 0.525733C23.93 0.549206 23.6761 0.601192 23.4303 0.680733C23.3254 0.714201 23.222 0.752124 23.1203 0.7944L23.1035 0.800858L1.50688 9.2729L1.50042 9.27548C1.43425 9.29653 1.36989 9.32288 1.30796 9.35427C1.15445 9.42345 1.0071 9.50555 0.867503 9.59969C0.589795 9.79086 0.061503 10.2404 0.150628 10.9534C0.224253 11.5449 0.631128 11.9195 0.906253 12.1146C1.06828 12.229 1.24295 12.3243 1.4268 12.3987L1.46813 12.4168L1.48104 12.4207L1.49009 12.4246L5.2695 13.6969C5.25573 13.9345 5.28027 14.1735 5.34313 14.4137L7.23542 21.5941C7.3388 21.9855 7.56217 22.3347 7.87418 22.5926C8.18619 22.8506 8.57115 23.0043 8.97501 23.0322C9.37886 23.0602 9.78132 22.9609 10.1259 22.7484C10.4704 22.5358 10.7397 22.2207 10.896 21.8473L13.8513 18.6879L18.9263 22.5784L18.9986 22.6094C19.4598 22.8109 19.8899 22.8741 20.2838 22.8212C20.6778 22.7669 20.9904 22.6016 21.2255 22.4143C21.4974 22.1939 21.7142 21.9131 21.8584 21.5941L21.8687 21.5721L21.8726 21.5644L21.8739 21.5605ZM7.21605 13.9203C7.19509 13.8406 7.20007 13.7564 7.23027 13.6797C7.26046 13.6031 7.3143 13.538 7.38396 13.4941L20.1986 5.35657C20.1986 5.35657 20.9529 4.89802 20.9258 5.35657C20.9258 5.35657 21.0601 5.43665 20.6558 5.81253C20.2735 6.17032 11.5225 14.6191 10.6364 15.4742C10.5883 15.5229 10.554 15.5835 10.5369 15.6499L9.10834 21.1007L7.21605 13.9203Z" fill="white"/>
</svg>
