<svg width="24" height="16" viewBox="0 0 24 16" fill="none" xmlns="http://www.w3.org/2000/svg">
<path fill-rule="evenodd" clip-rule="evenodd" d="M23.405 12.865C22.8609 11.7695 22.1441 10.7687 21.282 9.901C20.9932 9.57549 20.6913 9.2619 20.377 8.961L20.339 8.924C20.2222 8.81082 20.1069 8.69614 19.993 8.58C21.1718 6.94085 22.1803 5.18577 23.003 3.342L23.036 3.268L23.059 3.19C23.168 2.827 23.292 2.137 22.852 1.513C22.396 0.869 21.667 0.753 21.178 0.753H18.931C18.4604 0.731249 17.9951 0.859063 17.6017 1.11811C17.2082 1.37716 16.9069 1.75415 16.741 2.195C16.2575 3.34666 15.652 4.44324 14.935 5.466V2.833C14.935 2.493 14.903 1.923 14.538 1.443C14.102 0.867 13.471 0.753 13.033 0.753H9.467C9.00167 0.742293 8.55005 0.910961 8.20567 1.22407C7.86128 1.53719 7.65051 1.97076 7.617 2.435L7.614 2.48V2.525C7.614 3.01 7.806 3.368 7.96 3.593C8.029 3.694 8.102 3.786 8.149 3.844L8.159 3.857C8.209 3.919 8.242 3.96 8.275 4.006C8.363 4.124 8.488 4.308 8.524 4.782V6.255C7.80827 5.05627 7.22134 3.7852 6.773 2.463L6.765 2.441L6.757 2.42C6.635 2.101 6.44 1.637 6.049 1.283C5.593 0.868 5.053 0.753 4.562 0.753H2.282C1.785 0.753 1.186 0.869 0.739 1.34C0.3 1.804 0.25 2.36 0.25 2.654V2.788L0.278 2.918C0.908264 5.84913 2.20931 8.59429 4.079 10.938C4.93332 12.2854 6.09321 13.4124 7.46459 14.2276C8.83596 15.0428 10.3802 15.5233 11.972 15.63L12.013 15.633H12.055C12.781 15.633 13.538 15.57 14.107 15.191C14.874 14.679 14.935 13.894 14.935 13.502V12.364C15.132 12.524 15.376 12.738 15.675 13.026C16.037 13.388 16.325 13.702 16.572 13.976L16.704 14.122C16.896 14.336 17.085 14.547 17.257 14.72C17.473 14.937 17.74 15.176 18.074 15.353C18.437 15.544 18.818 15.631 19.222 15.631H21.503C21.984 15.631 22.673 15.517 23.158 14.955C23.686 14.343 23.646 13.592 23.48 13.053L23.45 12.956L23.405 12.865ZM17.685 12.971C17.3751 12.6245 17.056 12.2864 16.728 11.957L16.725 11.954C15.368 10.646 14.735 10.419 14.287 10.419C14.048 10.419 13.785 10.445 13.614 10.659C13.5379 10.7616 13.4875 10.8809 13.467 11.007C13.4432 11.1538 13.4324 11.3023 13.435 11.451V13.502C13.435 13.757 13.393 13.864 13.275 13.942C13.118 14.047 12.783 14.132 12.064 14.132C10.6982 14.0391 9.37398 13.6233 8.20018 12.9189C7.02637 12.2145 6.03652 11.2415 5.312 10.08L5.304 10.067L5.294 10.055C3.55218 7.88875 2.3388 5.3466 1.75 2.63C1.754 2.5 1.782 2.421 1.828 2.373C1.875 2.323 1.99 2.253 2.282 2.253H4.562C4.815 2.253 4.947 2.309 5.042 2.394C5.148 2.492 5.242 2.657 5.354 2.951C5.914 4.597 6.67 6.137 7.387 7.269C7.745 7.834 8.097 8.305 8.415 8.638C8.574 8.804 8.729 8.942 8.878 9.04C9.021 9.134 9.184 9.209 9.352 9.209C9.44 9.209 9.543 9.199 9.642 9.156C9.74905 9.10897 9.83712 9.02724 9.892 8.924C9.995 8.736 10.024 8.459 10.024 8.096V4.723C9.971 3.905 9.724 3.444 9.484 3.117C9.43532 3.05165 9.38531 2.98731 9.334 2.924L9.321 2.908C9.27856 2.85605 9.23787 2.80268 9.199 2.748C9.1503 2.68654 9.12075 2.61212 9.114 2.534C9.12185 2.45454 9.15976 2.38108 9.21999 2.32865C9.28022 2.27623 9.35821 2.24881 9.438 2.252H13.033C13.239 2.252 13.308 2.302 13.343 2.349C13.393 2.414 13.435 2.549 13.435 2.833V7.361C13.435 7.899 13.683 8.263 14.043 8.263C14.457 8.263 14.756 8.012 15.278 7.49L15.287 7.48L15.295 7.471C16.4661 6.04336 17.4228 4.45264 18.135 2.749L18.139 2.737C18.1922 2.5863 18.2935 2.45723 18.4272 2.36962C18.5608 2.282 18.7196 2.24068 18.879 2.252H21.179C21.491 2.252 21.593 2.332 21.627 2.379C21.662 2.429 21.687 2.536 21.627 2.746C20.8057 4.58241 19.7903 6.32567 18.598 7.946L18.59 7.958C18.475 8.135 18.348 8.331 18.33 8.555C18.31 8.797 18.414 9.016 18.597 9.252C18.73 9.448 19.005 9.717 19.284 9.99L19.31 10.016C19.602 10.302 19.919 10.612 20.173 10.912L20.18 10.919L20.187 10.927C20.9443 11.6826 21.5741 12.5559 22.052 13.513C22.128 13.773 22.082 13.907 22.022 13.976C21.953 14.056 21.798 14.131 21.504 14.131H19.222C19.0664 14.1352 18.9124 14.0991 18.775 14.026C18.6067 13.9274 18.4538 13.8048 18.321 13.662C18.178 13.519 18.023 13.346 17.833 13.135L17.685 12.971Z" fill="white"/>
</svg>
