<svg width="64" height="34" viewBox="0 0 64 34" fill="none" xmlns="http://www.w3.org/2000/svg">
<mask id="mask0_66_134" style="mask-type:luminance" maskUnits="userSpaceOnUse" x="0" y="0" width="64" height="34">
<path d="M64 0H0V33.7371H64V0Z" fill="white"/>
</mask>
<g mask="url(#mask0_66_134)">
<path d="M22.8509 0.0877525C22.807 0.131566 17.7265 1.18311 11.5465 2.40992C5.38835 3.65863 0.263961 4.73208 0.175988 4.7978C0.0880155 4.88543 2.30933 7.01043 5.10245 9.52976C11.4365 15.2256 21.2894 24.1419 27.3155 29.5968C29.8227 31.8751 31.9341 33.7373 32.022 33.7373C32.088 33.7373 34.7712 31.3494 38.0042 28.4357C45.2179 21.9074 45.086 22.0169 48.0551 19.388C49.3966 18.1831 51.112 16.6277 51.9038 15.9048C54.8509 13.1664 55.8406 12.2682 59.8873 8.67538C62.1527 6.63801 63.9341 4.90734 63.8461 4.81971C63.7581 4.73208 59.1615 3.74625 53.6633 2.6509C48.165 1.55554 43.0186 0.50399 42.2269 0.350638C41.4351 0.175381 40.7753 0.0658433 40.7533 0.0877525C40.7313 0.10966 43.0846 1.40219 45.9877 2.9576L51.2661 5.80554L50.3203 6.65992C49.7925 7.14188 48.6709 8.17151 47.8131 8.96017C45.02 11.5671 33.5615 22.0388 32.7698 22.718L32 23.397L27.9973 19.7385C25.798 17.7449 21.8613 14.1303 19.2441 11.7204C16.6048 9.31068 14.0976 7.03234 13.6577 6.63801C13.1299 6.17796 12.932 5.87125 13.086 5.73981C13.2179 5.60837 15.5272 4.31584 18.2543 2.84806C23.4447 0.0439363 23.5107 0.00012207 23.1589 0.00012207C23.0489 0.00012207 22.8949 0.0439363 22.8509 0.0877525Z" fill="white"/>
<path d="M22.0811 7.18566C22.1251 7.20757 23.3348 7.57999 24.7643 7.97432C26.1939 8.39056 28.4372 9.02587 29.7127 9.39828L32.044 10.0774L36.9484 8.65344C39.6316 7.88669 41.875 7.22948 41.8969 7.18566C41.941 7.14184 37.4763 7.11993 32.0001 7.11993C26.5238 7.11993 22.0592 7.14184 22.0811 7.18566Z" fill="white"/>
</g>
</svg>
