<svg width="199" height="38" viewBox="0 0 199 38" fill="none" xmlns="http://www.w3.org/2000/svg">
<path opacity="0.08" d="M3 16.5C1.61929 16.5 0.5 17.6193 0.5 19C0.5 20.3807 1.61929 21.5 3 21.5V16.5ZM197.791 20.7678C198.767 19.7915 198.767 18.2085 197.791 17.2322L181.881 1.32233C180.905 0.34602 179.322 0.34602 178.346 1.32233C177.369 2.29864 177.369 3.88155 178.346 4.85786L192.488 19L178.346 33.1421C177.369 34.1184 177.369 35.7014 178.346 36.6777C179.322 37.654 180.905 37.654 181.881 36.6777L197.791 20.7678ZM3 19V21.5H196.023V19V16.5H3V19Z" fill="white"/>
</svg>
