<svg width="199" height="38" viewBox="0 0 199 38" fill="none" xmlns="http://www.w3.org/2000/svg">
<path opacity="0.08" d="M196.023 21.5C197.404 21.5 198.523 20.3807 198.523 19C198.523 17.6193 197.404 16.5 196.023 16.5V21.5ZM1.23224 17.2322C0.25592 18.2085 0.25592 19.7915 1.23224 20.7678L17.1421 36.6777C18.1185 37.654 19.7014 37.654 20.6777 36.6777C21.654 35.7014 21.654 34.1184 20.6777 33.1421L6.53554 19L20.6777 4.85786C21.654 3.88155 21.654 2.29864 20.6777 1.32233C19.7014 0.34602 18.1185 0.34602 17.1421 1.32233L1.23224 17.2322ZM196.023 19V16.5L3 16.5V19V21.5L196.023 21.5V19Z" fill="white"/>
</svg>
