<svg width="1297" height="47" viewBox="0 0 1297 47" fill="none" xmlns="http://www.w3.org/2000/svg">
<path d="M15.3049 28.5327H35.4061L25.3131 8.65133L15.3049 28.5327ZM0.547119 45.8354L22.9383 0.998236H27.688L50.3336 45.8354H44.142L37.9506 33.7735H12.6757L6.65382 45.8354H0.547119ZM94.8645 39.5965C95.8252 39.5965 96.6171 39.9571 97.2393 40.6778C97.9178 41.3433 98.2571 42.2311 98.2571 43.3397C98.2571 44.4491 97.9457 45.3362 97.3242 46.0017C96.7021 46.6672 95.8823 47 94.8645 47C93.8467 47 92.9986 46.6672 92.32 46.0017C91.6979 45.3362 91.3871 44.4491 91.3871 43.3397C91.3871 42.2311 91.6979 41.3433 92.32 40.6778C92.9986 39.9571 93.8467 39.5965 94.8645 39.5965ZM146.106 45.8354V0.998236H151.788V40.6778H181.643V45.8354H146.106ZM218.892 46.0017V0.998236H224.66V46.0017H218.892ZM268.727 45.8354V0.998236H274.409V23.292L300.617 0.998236H308.081L289.59 16.8867L310.88 45.8354H304.009L285.52 20.7132L274.409 29.8636V45.8354H268.727ZM348.713 45.8354V0.998236H354.481V18.7168H381.452V0.998236H387.135V45.8354H381.452V23.8743H354.481V45.8354H348.713ZM439.156 28.5327H459.257L449.164 8.65133L439.156 28.5327ZM424.399 45.8354L446.789 0.998236H451.539L474.185 45.8354H467.994L461.802 33.7735H436.528L430.505 45.8354H424.399ZM547.89 31.5274L552.469 34.8549C550.325 38.7926 547.441 41.8152 543.818 43.9222C540.201 45.9744 536.076 47 531.435 47C524.596 47 518.942 44.8098 514.473 40.4284C510.007 35.9921 507.772 30.3629 507.772 23.5416C507.772 16.7204 510.007 11.0917 514.473 6.65487C518.942 2.2187 524.596 0 531.435 0C535.675 0 539.522 0.915043 542.97 2.74513C546.478 4.57522 549.307 7.15398 551.451 10.4814L546.701 13.8089C545.236 11.0917 543.14 8.98407 540.425 7.48672C537.772 5.98938 534.773 5.24071 531.435 5.24071C526.347 5.24071 522.106 6.96028 518.713 10.3982C515.32 13.8368 513.623 18.2177 513.623 23.5416C513.623 28.8655 515.32 33.2469 518.713 36.6849C522.106 40.0682 526.347 41.7593 531.435 41.7593C538.729 41.7593 544.218 38.3487 547.89 31.5274ZM592.902 45.8354V0.998236H598.669V18.7168H625.64V0.998236H631.324V45.8354H625.64V23.8743H598.669V45.8354H592.902ZM675.456 45.8354V0.998236H711.418V6.15576H681.139V19.2991H699.459V24.4567H681.139V40.6778H713.284V45.8354H675.456ZM770.195 45.8354H766.634L744.582 0.998236H750.773L768.414 36.9345L786.056 0.998236H792.332L770.195 45.8354ZM883.096 39.0974L886.404 34.2726C893.019 39.3195 899.83 41.8425 906.844 41.8425C911.139 41.8425 914.587 40.9553 917.193 39.1806C919.791 37.4063 921.094 35.1604 921.094 32.4425C921.094 30.3355 920.161 28.5607 918.294 27.1187C916.483 25.6213 913.855 24.7342 910.407 24.4567C909.389 24.3462 907.608 24.2071 905.063 24.0407C902.518 23.8743 900.708 23.7359 899.635 23.6248C898.556 23.5143 897.23 23.292 895.649 22.9593C894.062 22.6265 892.705 22.1833 891.577 21.6284C887.222 19.5214 885.047 16.4435 885.047 12.3947C885.047 8.84563 886.659 5.90619 889.882 3.577C893.159 1.19253 897.455 0 902.774 0C910.462 0 917.755 2.44031 924.656 7.32035L921.348 11.9788C915.635 7.48673 909.474 5.24071 902.859 5.24071C899.351 5.24071 896.497 5.90619 894.293 7.23716C892.086 8.56813 890.985 10.2045 890.985 12.1451C890.985 13.6983 891.717 15.0293 893.19 16.1381C894.092 16.8035 895.249 17.3306 896.667 17.7187C898.132 18.1072 899.489 18.3568 900.738 18.4672C902.034 18.5784 903.847 18.7168 906.166 18.8832C908.541 18.9943 910.492 19.1327 912.019 19.2991C916.707 19.854 920.385 21.3514 923.045 23.7912C925.759 26.1762 927.115 29.1151 927.115 32.6088C927.115 36.6576 925.305 40.0682 921.687 42.8407C918.065 45.6138 913.145 47 906.929 47C897.994 47 890.05 44.3659 883.096 39.0974ZM978.55 45.8354V6.15576H959.296V0.998236H1003.49V6.15576H984.232V45.8354H978.55ZM1044.52 0.998236V30.03C1044.52 34.6884 1045.4 37.8223 1047.15 39.43C1048.96 40.9833 1052.47 41.7593 1057.66 41.7593C1062.87 41.7593 1066.34 40.9833 1068.1 39.43C1069.91 37.8223 1070.81 34.6884 1070.81 30.03V0.998236H1076.49V31.5274C1076.49 37.0177 1075.03 40.9833 1072.08 43.423C1069.2 45.8081 1064.39 47 1057.66 47C1050.94 47 1046.11 45.8081 1043.16 43.423C1040.28 40.9833 1038.84 37.0177 1038.84 31.5274V0.998236H1044.52ZM1139.03 6.15576H1125.12V40.6778H1139.03C1144.79 40.6778 1149.26 39.0974 1152.43 35.9362C1155.59 32.7752 1157.18 28.6159 1157.18 23.4584C1157.18 18.3568 1155.53 14.1974 1152.26 10.9805C1149.03 7.76421 1144.62 6.15576 1139.03 6.15576ZM1119.43 0.998236H1139.03C1146.32 0.998236 1152.14 3.10581 1156.5 7.32035C1160.85 11.5355 1163.03 16.9426 1163.03 23.5416C1163.03 30.1413 1160.88 35.5203 1156.58 39.6797C1152.34 43.7836 1146.49 45.8354 1139.03 45.8354H1119.43V0.998236ZM1203.39 46.0017V0.998236H1209.16V46.0017H1203.39ZM1260.53 36.6849C1263.92 40.0682 1268.16 41.7593 1273.25 41.7593C1278.34 41.7593 1282.58 40.0403 1285.97 36.6017C1289.37 33.1639 1291.06 28.8103 1291.06 23.5416C1291.06 18.2177 1289.37 13.8368 1285.97 10.3982C1282.58 6.96028 1278.34 5.24071 1273.25 5.24071C1268.16 5.24071 1263.92 6.96028 1260.53 10.3982C1257.14 13.8368 1255.44 18.2177 1255.44 23.5416C1255.44 28.8655 1257.14 33.2469 1260.53 36.6849ZM1290.21 40.4284C1285.74 44.8098 1280.09 47 1273.25 47C1266.41 47 1260.75 44.8098 1256.29 40.4284C1251.82 35.9921 1249.59 30.3629 1249.59 23.5416C1249.59 16.7204 1251.82 11.0917 1256.29 6.65487C1260.75 2.2187 1266.41 0 1273.25 0C1280.09 0 1285.74 2.2187 1290.21 6.65487C1294.73 11.0917 1297 16.7204 1297 23.5416C1297 30.3629 1294.73 35.9921 1290.21 40.4284Z" fill="white"/>
</svg>
