<svg width="1297" height="47" viewBox="0 0 1297 47" fill="none" xmlns="http://www.w3.org/2000/svg">
<path d="M14.7578 28.5327H34.859L24.766 8.65133L14.7578 28.5327ZM0 45.8354L22.3912 0.998236H27.1409L49.7864 45.8354H43.5949L37.4035 33.7735H12.1286L6.1067 45.8354H0ZM94.3174 39.5965C95.2781 39.5965 96.07 39.9571 96.6922 40.6778C97.3707 41.3433 97.71 42.2311 97.71 43.3397C97.71 44.4491 97.3986 45.3362 96.7771 46.0017C96.155 46.6672 95.3352 47 94.3174 47C93.2996 47 92.4515 46.6672 91.7729 46.0017C91.1507 45.3362 90.84 44.4491 90.84 43.3397C90.84 42.2311 91.1507 41.3433 91.7729 40.6778C92.4515 39.9571 93.2996 39.5965 94.3174 39.5965ZM145.559 45.8354V0.998236H151.241V40.6778H181.095V45.8354H145.559ZM218.345 46.0017V0.998236H224.113V46.0017H218.345ZM268.18 45.8354V0.998236H273.862V23.292L300.069 0.998236H307.534L289.043 16.8867L310.333 45.8354H303.462L284.973 20.7132L273.862 29.8636V45.8354H268.18ZM348.166 45.8354V0.998236H353.933V18.7168H380.905V0.998236H386.588V45.8354H380.905V23.8743H353.933V45.8354H348.166ZM438.609 28.5327H458.71L448.617 8.65133L438.609 28.5327ZM423.851 45.8354L446.242 0.998236H450.992L473.638 45.8354H467.447L461.255 33.7735H435.981L429.958 45.8354H423.851ZM547.343 31.5274L551.922 34.8549C549.778 38.7926 546.894 41.8152 543.271 43.9222C539.654 45.9744 535.529 47 530.888 47C524.049 47 518.395 44.8098 513.926 40.4284C509.46 35.9921 507.225 30.3629 507.225 23.5416C507.225 16.7204 509.46 11.0917 513.926 6.65487C518.395 2.2187 524.049 0 530.888 0C535.128 0 538.975 0.915043 542.423 2.74513C545.931 4.57522 548.76 7.15398 550.904 10.4814L546.154 13.8089C544.689 11.0917 542.593 8.98407 539.878 7.48672C537.224 5.98938 534.225 5.24071 530.888 5.24071C525.799 5.24071 521.559 6.96028 518.166 10.3982C514.773 13.8368 513.076 18.2177 513.076 23.5416C513.076 28.8655 514.773 33.2469 518.166 36.6849C521.559 40.0682 525.799 41.7593 530.888 41.7593C538.182 41.7593 543.671 38.3487 547.343 31.5274ZM592.355 45.8354V0.998236H598.122V18.7168H625.092V0.998236H630.777V45.8354H625.092V23.8743H598.122V45.8354H592.355ZM674.909 45.8354V0.998236H710.871V6.15576H680.592V19.2991H698.912V24.4567H680.592V40.6778H712.737V45.8354H674.909ZM769.648 45.8354H766.087L744.034 0.998236H750.226L767.867 36.9345L785.509 0.998236H791.785L769.648 45.8354ZM882.549 39.0974L885.857 34.2726C892.472 39.3195 899.282 41.8425 906.297 41.8425C910.592 41.8425 914.04 40.9553 916.645 39.1806C919.244 37.4063 920.547 35.1604 920.547 32.4425C920.547 30.3355 919.614 28.5607 917.747 27.1187C915.936 25.6213 913.308 24.7342 909.86 24.4567C908.842 24.3462 907.061 24.2071 904.516 24.0407C901.971 23.8743 900.16 23.7359 899.087 23.6248C898.009 23.5143 896.682 23.292 895.102 22.9593C893.515 22.6265 892.158 22.1833 891.03 21.6284C886.674 19.5214 884.5 16.4435 884.5 12.3947C884.5 8.84563 886.112 5.90619 889.335 3.577C892.612 1.19253 896.908 0 902.227 0C909.915 0 917.208 2.44031 924.108 7.32035L920.801 11.9788C915.088 7.48673 908.927 5.24071 902.312 5.24071C898.804 5.24071 895.95 5.90619 893.746 7.23716C891.539 8.56813 890.438 10.2045 890.438 12.1451C890.438 13.6983 891.17 15.0293 892.642 16.1381C893.545 16.8035 894.701 17.3306 896.12 17.7187C897.585 18.1072 898.942 18.3568 900.191 18.4672C901.487 18.5784 903.3 18.7168 905.619 18.8832C907.994 18.9943 909.945 19.1327 911.472 19.2991C916.159 19.854 919.838 21.3514 922.498 23.7912C925.211 26.1762 926.568 29.1151 926.568 32.6088C926.568 36.6576 924.758 40.0682 921.139 42.8407C917.518 45.6138 912.598 47 906.382 47C897.447 47 889.503 44.3659 882.549 39.0974ZM978.003 45.8354V6.15576H958.749V0.998236H1002.94V6.15576H983.685V45.8354H978.003ZM1043.97 0.998236V30.03C1043.97 34.6884 1044.85 37.8223 1046.6 39.43C1048.41 40.9833 1051.92 41.7593 1057.12 41.7593C1062.32 41.7593 1065.8 40.9833 1067.55 39.43C1069.36 37.8223 1070.26 34.6884 1070.26 30.03V0.998236H1075.95V31.5274C1075.95 37.0177 1074.48 40.9833 1071.54 43.423C1068.65 45.8081 1063.85 47 1057.12 47C1050.39 47 1045.56 45.8081 1042.61 43.423C1039.73 40.9833 1038.29 37.0177 1038.29 31.5274V0.998236H1043.97ZM1138.48 6.15576H1124.57V40.6778H1138.48C1144.25 40.6778 1148.71 39.0974 1151.88 35.9362C1155.04 32.7752 1156.63 28.6159 1156.63 23.4584C1156.63 18.3568 1154.99 14.1974 1151.71 10.9805C1148.49 7.76421 1144.08 6.15576 1138.48 6.15576ZM1118.89 0.998236H1138.48C1145.77 0.998236 1151.59 3.10581 1155.95 7.32035C1160.3 11.5355 1162.48 16.9426 1162.48 23.5416C1162.48 30.1413 1160.33 35.5203 1156.04 39.6797C1151.79 43.7836 1145.94 45.8354 1138.48 45.8354H1118.89V0.998236ZM1202.85 46.0017V0.998236H1208.62V46.0017H1202.85ZM1259.98 36.6849C1263.37 40.0682 1267.62 41.7593 1272.71 41.7593C1277.79 41.7593 1282.03 40.0403 1285.43 36.6017C1288.82 33.1639 1290.52 28.8103 1290.52 23.5416C1290.52 18.2177 1288.82 13.8368 1285.43 10.3982C1282.03 6.96028 1277.79 5.24071 1272.71 5.24071C1267.62 5.24071 1263.37 6.96028 1259.98 10.3982C1256.59 13.8368 1254.89 18.2177 1254.89 23.5416C1254.89 28.8655 1256.59 33.2469 1259.98 36.6849ZM1289.67 40.4284C1285.2 44.8098 1279.54 47 1272.71 47C1265.86 47 1260.21 44.8098 1255.74 40.4284C1251.27 35.9921 1249.04 30.3629 1249.04 23.5416C1249.04 16.7204 1251.27 11.0917 1255.74 6.65487C1260.21 2.2187 1265.86 0 1272.71 0C1279.54 0 1285.2 2.2187 1289.67 6.65487C1294.19 11.0917 1296.45 16.7204 1296.45 23.5416C1296.45 30.3629 1294.19 35.9921 1289.67 40.4284Z" fill="white"/>
</svg>
